<svg width="240" height="240" viewBox="0 0 240 240" fill="none" xmlns="http://www.w3.org/2000/svg">
<rect width="240" height="240" fill="white"/>
<path d="M134.673 73.0619C115.742 70.6368 95.4081 68.5819 77.7869 77.5975C61.6973 85.8355 50.5341 102.608 44.8326 119.38C33.9094 151.573 42.1018 189.931 67.7309 212.831C92.013 234.527 128.824 242.247 159.232 229.788C168.365 226.049 176.779 220.976 184.602 214.978C192.426 208.98 200.157 202.371 206.67 194.892C213.184 187.413 217.741 179.601 219.863 170.326C221.856 161.625 221.635 152.628 219.845 143.927C212.427 107.828 179.731 80.4669 145.393 71.1736C141.131 70.0259 136.795 69.1558 132.422 68.5449C129.949 68.1931 127.477 69.1558 126.739 71.7845C126.148 73.9505 127.477 77.1346 129.968 77.4864C162.221 82.0034 194.142 102.515 206.947 133.375C212.944 147.834 214.549 164.902 206.763 179.009C202.445 186.821 196.005 193.115 189.437 199.021C182.868 204.926 175.34 210.868 167.406 215.515C153.936 223.42 138.99 227.233 123.399 226.363C108.804 225.549 94.4671 220.68 82.3076 212.553C56.8076 195.522 45.091 163.625 50.6449 133.746C53.5233 118.251 60.7378 103.311 72.436 92.5925C85.924 80.2447 104.062 79.3006 121.388 80.8371C125.835 81.2259 130.244 81.7813 134.673 82.3366C137.145 82.6513 139.286 79.9856 139.286 77.7085C139.286 74.9502 137.164 73.3951 134.673 73.0804V73.0619Z" fill="#231F20"/>
<path d="M97.7881 120.009V131.783C97.7881 134.208 99.91 136.522 102.401 136.411C104.892 136.3 107.014 134.375 107.014 131.783V120.009C107.014 117.584 104.892 115.27 102.401 115.381C99.91 115.492 97.7881 117.418 97.7881 120.009Z" fill="#231F20"/>
<path d="M148.954 118.38V128.525C148.954 129.71 149.471 130.95 150.301 131.802C151.131 132.653 152.423 133.209 153.567 133.153C154.711 133.098 156.003 132.709 156.833 131.802C157.663 130.895 158.18 129.784 158.18 128.525V118.38C158.18 117.195 157.663 115.955 156.833 115.104C156.003 114.252 154.711 113.697 153.567 113.752C152.423 113.808 151.131 114.196 150.301 115.104C149.471 116.011 148.954 117.121 148.954 118.38Z" fill="#231F20"/>
<path d="M93.0643 168.105C93.6732 176.694 98.7658 183.525 104.947 189.135C111.128 194.744 118.398 200.039 127.052 200.372C135.706 200.705 143.88 195.54 149.784 189.394C155.578 183.359 162.073 176.102 162.829 167.42C163.051 164.92 160.56 162.792 158.216 162.792C155.541 162.792 153.825 164.92 153.604 167.42C153.345 170.382 151.371 173.103 149.6 175.38C147.607 177.972 145.503 180.489 143.252 182.84C138.972 187.283 133.491 191.356 127.033 191.116C121.018 190.893 115.704 186.469 111.442 182.6C107.18 178.731 102.696 174.047 102.253 168.105C102.069 165.605 100.26 163.476 97.6403 163.476C95.2785 163.476 92.8429 165.605 93.0274 168.105H93.0643Z" fill="#231F20"/>
<path d="M182.407 86.8906C180.801 78.9488 175.247 72.9322 170.173 66.9712C165.099 61.0102 160.376 54.8641 155.947 48.4403C146.795 35.1854 139.009 21.0234 132.661 6.21343L124.69 10.8786C133.4 23.393 139.507 37.3513 142.754 52.2724L148.437 46.5705C129.82 43.7752 112.236 35.7963 98.1388 23.2449C93.6182 19.2277 87.9167 25.2072 91.607 29.7983C96.8103 36.2406 102.014 42.7014 107.217 49.1438L110.483 41.239C94.1717 41.239 77.916 39.795 61.8817 36.833C57.3242 35.9999 54.2612 40.9798 57.398 44.5712C62.1954 50.0694 66.9927 55.5491 71.7901 61.0473L75.056 53.1424C57.5825 54.9011 39.9983 55.4195 22.4509 54.6975C17.0446 54.4753 16.4727 62.1765 21.2331 63.7871C34.0753 68.156 46.9176 72.5065 59.7598 76.8754L60.9776 67.7858C48.1538 69.1187 35.8651 72.7286 24.4068 78.6711C20.9195 80.4853 21.7129 86.2612 25.5139 87.1313C34.8688 89.2972 44.2975 88.5938 53.7261 87.2794C62.5459 86.0576 71.3473 84.5951 80.1855 83.4658C97.7513 81.2073 115.557 79.7818 133.252 81.3184C143.068 82.1699 152.737 84.1323 162.073 87.2238C165.745 88.4457 169.564 83.725 167.276 80.4298C160.615 70.8033 153.936 61.1768 147.275 51.5689L140.965 57.9001C150.67 63.4168 158.088 71.877 162.516 82.1514L169.767 76.5422C153.419 62.5282 135.152 50.9395 115.428 42.3127C113.14 41.313 110.483 41.6462 109.117 43.9788C107.881 46.1077 108.601 49.0882 110.778 50.31C117.494 54.0866 124.211 57.8631 130.927 61.6397C134.211 63.4909 137.514 65.3421 140.799 67.1934C142.146 67.9524 143.677 68.6188 144.876 69.6185C145.264 69.9517 145.614 70.3405 145.965 70.7293C146.057 70.8218 146.316 69.2483 145.817 70.6737L150.264 67.2674C133.233 65.3607 116.572 60.1216 101.423 52.1058L100.316 60.5659C110.63 57.4744 121.794 58.4185 131.37 63.4354L133.695 54.8086C128.215 55.1603 123.03 54.3087 117.937 52.2538C113.121 50.3286 109.616 58.5666 114.376 60.714C123.713 64.9349 133.067 69.1557 142.404 73.3765L144.729 64.7497C120.225 62.9725 96.3121 55.4935 75.0929 43.1087L71.5318 51.5689C82.5289 55.4565 94.1348 57.4558 105.796 57.5669L103.471 48.9401C87.7322 58.5111 69.2992 62.3987 51.0322 60.2327V69.4889C67.7677 68.119 84.5032 66.4714 100.132 59.8625L95.4818 51.8651C87.7137 55.2158 79.9641 58.5851 72.1961 61.9359L78.9677 67.1564C79.9641 64.0648 81.9569 61.5286 84.6877 59.8069L80.0379 51.8096C72.4913 57.3818 65.4059 63.4909 58.8926 70.2294C55.8112 73.4136 58.8557 79.4486 63.3763 77.9676C82.4182 71.6919 102.161 67.8043 122.163 66.5084C128.03 66.1382 128.141 57.0856 122.163 57.2522C104.062 57.7706 86.0716 60.9362 68.9117 66.7491C65.0184 68.0635 64.059 74.876 68.9117 75.6721C87.7506 78.7451 106.996 77.5789 125.262 71.8955C130.909 70.1369 128.51 61.1954 122.808 62.9726C106.221 68.1375 88.544 69.563 71.3657 66.7491V75.6721C87.7875 70.1184 104.837 67.0083 122.163 66.5084V57.2522C101.349 58.6036 80.7391 62.5097 60.9222 69.0446L65.4059 76.7828C71.3657 70.6182 77.7868 64.8978 84.6877 59.8069C86.6989 58.3259 87.6953 55.7897 86.3483 53.4757C85.1121 51.3653 82.1598 50.4767 80.0379 51.8096C75.2221 54.8271 71.8086 59.2701 70.0741 64.6942C69.5206 66.4344 70.314 68.5078 71.7348 69.563C73.34 70.7663 75.0745 70.6922 76.8643 69.9332C84.6323 66.5825 92.3819 63.2132 100.15 59.8625C102.438 58.8813 102.955 55.4935 101.811 53.5312C100.427 51.1431 97.8067 50.9024 95.5002 51.8651C81.514 57.7891 66.0148 58.9924 51.0507 60.2327C45.0355 60.7325 45.2016 68.804 51.0507 69.4889C70.7937 71.8215 91.1457 67.2674 108.139 56.9375C112.051 54.5679 110.427 48.3477 105.815 48.3107C94.9282 48.1996 84.2633 46.2743 74.0043 42.6459C69.004 40.8872 66.0148 48.5143 70.4432 51.1061C93.12 64.324 118.601 72.0992 144.747 74.006C149.176 74.3207 151.242 67.2674 147.072 65.3792C137.736 61.1583 128.381 56.9375 119.044 52.7167L115.483 61.1768C121.24 63.4909 127.514 64.4535 133.695 64.0648C137.975 63.7871 140.337 57.715 136.02 55.438C124.285 49.2919 110.557 47.8294 97.862 51.6429C94.2271 52.7352 93.1385 58.1963 96.7549 60.1031C113.454 68.9336 131.517 74.4132 150.264 76.5237C152.349 76.7643 154.084 74.8946 154.711 73.1174C157.903 64.0463 145.448 59.1775 139.544 55.8638C131.517 51.3467 123.473 46.8297 115.446 42.3127L110.797 50.31C129.765 58.6036 147.533 69.6 163.272 83.0956C167.406 86.6314 172.59 82.281 170.524 77.4863C165.524 65.879 156.611 56.1415 145.67 49.9213C141.887 47.7738 136.61 52.2909 139.359 56.2525C146.02 65.879 152.7 75.5055 159.361 85.1134L164.564 78.3194C130.115 66.8787 93.3045 72.0251 58.2468 77.3382C48.283 78.8562 37.9871 80.5038 28.0048 78.2083L29.1119 86.6685C39.0388 81.522 49.9067 78.2083 61.0329 77.042C66.1255 76.5236 67.3987 69.6926 62.2507 67.9524C49.4085 63.5835 36.5663 59.233 23.7241 54.8641L22.5063 63.9537C40.0536 64.6757 57.6194 64.1573 75.1114 62.3987C79.1338 61.9914 81.1266 57.6595 78.3773 54.4939C73.5799 48.9957 68.7825 43.516 63.9852 38.0178L59.5015 45.756C76.3476 48.8661 93.4337 50.4952 110.557 50.4952C114.874 50.4952 116.221 45.5709 113.823 42.5904C108.619 36.148 103.416 29.6872 98.2126 23.2449L91.6808 29.7983C106.922 43.3679 125.871 52.476 146.057 55.512C149.563 56.0304 152.552 53.5312 151.74 49.8102C148.327 34.2042 141.85 19.3017 132.735 6.21343C129.285 1.23358 122.439 5.47293 124.764 10.8786C131.019 25.4293 138.64 39.3692 147.589 52.4205C152.128 59.0479 156.999 65.4532 162.147 71.6179C166.649 77.005 172.148 82.1885 173.587 89.3343C174.085 91.7779 176.982 93.2034 179.27 92.5739C181.816 91.8705 182.979 89.3343 182.499 86.8721L182.407 86.8906Z" fill="black"/>
</svg>
