<svg width="240" height="240" viewBox="0 0 240 240" fill="none" xmlns="http://www.w3.org/2000/svg">
<rect width="240" height="240" fill="white"/>
<path d="M121.634 41.3161C102.703 38.8909 82.369 36.836 64.7479 45.8516C48.6582 54.0896 37.4951 70.8619 31.7936 87.6342C20.8703 119.827 29.0628 158.185 54.6918 181.085C78.974 202.782 115.785 210.501 146.193 198.042C155.326 194.303 163.74 189.23 171.563 183.232C179.387 177.234 187.118 170.625 193.631 163.146C200.145 155.667 204.702 147.855 206.824 138.58C208.817 129.88 208.595 120.882 206.806 112.182C199.388 76.0824 166.692 48.721 132.354 39.4278C128.092 38.28 123.756 37.4099 119.383 36.799C116.91 36.4473 114.438 37.4099 113.7 40.0387C113.109 42.2047 114.438 45.3888 116.929 45.7405C149.182 50.2576 181.103 70.7693 193.908 101.63C199.905 116.088 201.51 133.156 193.724 147.263C189.406 155.075 182.966 161.369 176.398 167.275C169.829 173.18 162.301 179.123 154.367 183.769C140.897 191.674 125.951 195.488 110.36 194.618C95.7648 193.803 81.428 188.934 69.2685 180.807C43.7686 163.776 32.0519 131.879 37.6058 102C40.4842 86.5049 47.6987 71.5654 59.397 60.8467C72.885 48.4989 91.0228 47.5547 108.349 49.0913C112.795 49.48 117.205 50.0354 121.634 50.5908C124.106 50.9055 126.247 48.2397 126.247 45.9627C126.247 43.2043 124.125 41.6493 121.634 41.3346V41.3161Z" fill="#231F20"/>
<path d="M84.7495 88.245C84.7495 92.1696 84.7495 96.0943 84.7495 100.019C84.7495 102.444 86.8714 104.758 89.3624 104.647C91.8533 104.536 93.9752 102.611 93.9752 100.019C93.9752 96.0943 93.9752 92.1696 93.9752 88.245C93.9752 85.8199 91.8533 83.5058 89.3624 83.6169C86.8714 83.728 84.7495 85.6532 84.7495 88.245Z" fill="#231F20"/>
<path d="M135.916 86.6161V96.7609C135.916 97.9457 136.432 99.186 137.262 100.038C138.093 100.889 139.384 101.445 140.528 101.389C141.672 101.333 142.964 100.945 143.794 100.038C144.625 99.1305 145.141 98.0197 145.141 96.7609V86.6161C145.141 85.4313 144.625 84.1909 143.794 83.3394C142.964 82.4878 141.672 81.9324 140.528 81.9879C139.384 82.0435 138.093 82.4322 137.262 83.3394C136.432 84.2465 135.916 85.3572 135.916 86.6161Z" fill="#231F20"/>
<path d="M80.0258 136.34C80.6347 144.93 85.7273 151.761 91.9085 157.371C98.0897 162.98 105.36 168.274 114.013 168.608C122.667 168.941 130.841 163.776 136.746 157.63C142.65 151.484 149.034 144.338 149.791 135.655C150.012 133.156 147.521 131.027 145.178 131.027C142.502 131.027 140.786 133.156 140.565 135.655C140.307 138.617 138.332 141.339 136.561 143.616C134.568 146.208 132.465 148.725 130.214 151.076C125.933 155.519 120.453 159.592 113.995 159.351C107.98 159.129 102.666 154.705 98.4034 150.836C94.1411 146.967 89.6574 142.283 89.2146 136.34C89.0301 133.841 87.2218 131.712 84.6017 131.712C82.2399 131.712 79.8044 133.841 79.9889 136.34H80.0258Z" fill="#231F20"/>
<path d="M113.183 36.4473C105.913 35.6698 98.6065 35.207 91.2997 35.0774C83.9929 34.9478 76.9629 34.7812 70.0806 36.4103C58.1609 39.2612 48.4554 48.9432 41.4439 58.5697C27.2732 77.9707 22.3466 102.87 19.9295 126.307C18.2504 142.505 18.1582 158.852 19.5789 175.087C19.8003 177.679 21.5163 179.585 24.1918 179.715C32.089 180.122 40.0047 180.53 47.9019 180.937C52.2749 181.159 54.4706 174.18 50.2268 172.31C42.6801 168.996 36.0561 163.776 31.4247 156.908C29.1921 153.594 27.347 150.04 26.1292 146.226C25.5756 144.504 25.262 143.209 25.3911 141.45C25.3911 141.376 25.5941 140.21 25.5387 140.395C25.6679 140.024 26.1661 139.691 25.6679 139.876L19.9848 136.637C24.3763 149.41 30.0962 161.684 37.1447 173.217C40.2814 178.364 47.6436 173.865 45.1157 168.552C42.0159 161.999 38.8976 155.464 35.7977 148.91C32.9562 142.912 29.1737 136.748 28.1219 130.102L21.3503 135.322C22.9924 136.47 23.4906 138.914 23.8781 140.728C24.5793 144.097 24.7453 147.614 24.7269 151.039C24.7269 158.296 23.6382 165.479 22.4942 172.643L28.1773 169.404C24.4132 168.737 23.712 164.498 23.3799 161.24C22.8633 156.112 22.5311 150.965 22.3466 145.8C21.9961 135.581 22.4204 125.288 24.7269 115.292C27.0333 105.295 30.6867 96.1129 34.3585 86.8011C36.0376 82.5248 37.8828 78.3224 40.466 74.4904C43.0492 70.6583 46.0937 67.3446 49.1012 63.9568C55.2825 57.0146 61.9619 49.5356 71.04 46.5551C76.6493 44.7039 74.2506 35.7624 68.586 37.6321C58.9912 40.7792 51.5184 47.5548 44.8205 54.9042C41.3885 58.6808 37.9566 62.4943 34.8567 66.567C31.3878 71.1026 28.8784 75.9528 26.7012 81.2104C22.5311 91.3552 18.4349 101.704 15.9255 112.404C13.4161 123.104 12.6781 135.211 13.1209 146.689C13.3608 153.057 13.5084 159.759 14.7815 166.016C15.9255 171.644 19.7081 177.271 25.6863 178.308C27.919 178.697 30.945 177.734 31.3694 175.068C32.7717 166.238 34.2109 157.296 33.8788 148.318C33.602 140.709 32.7164 131.99 25.9816 127.288C24.487 126.251 22.199 126.584 20.8521 127.658C19.2837 128.898 18.8962 130.602 19.1914 132.527C20.317 139.636 24.3578 146.3 27.4023 152.724C30.6313 159.536 33.8788 166.368 37.1078 173.18L45.0788 168.515C38.4548 157.667 32.9931 146.189 28.8415 134.156C28.1035 131.99 25.6125 129.954 23.1585 130.916C11.3865 135.581 17.0142 150.651 21.5901 158.611C27.0333 168.089 35.5394 175.883 45.5401 180.27L47.865 171.644C39.9678 171.236 32.0521 170.829 24.1549 170.422L28.7677 175.05C26.5167 149.41 27.6422 122.826 34.008 97.816C36.6281 87.5416 40.2999 77.5449 45.8538 68.4738C51.4077 59.4027 58.9543 50.5723 68.6044 46.5366C75.0624 43.8338 82.5906 44.2225 89.4361 44.2781C97.3518 44.3521 105.267 44.8149 113.146 45.6665C115.619 45.9257 117.759 43.3525 117.759 41.0384C117.759 38.3171 115.637 36.6695 113.146 36.4103L113.183 36.4473Z" fill="black"/>
<path d="M116.32 44.704C130.435 45.5 144.145 49.5727 157.116 55.0154C163.592 57.7367 169.921 60.8468 176.158 64.0865C181.915 67.0855 187.764 70.2326 192.58 74.6386C197.396 79.0445 201.049 85.0611 204.223 91.0406C207.581 97.3718 210.902 103.685 212.655 110.664C214.408 117.643 214.943 125.492 215.57 132.971C216.198 140.45 216.936 148.077 217.489 155.63C217.692 158.315 218.117 161.925 216.216 164.146C214.703 165.923 211.935 166.331 209.721 166.442C203.263 166.756 195.495 166.053 189.867 162.665L191.528 168.996C193.668 165.257 197.469 162.924 201.787 162.85L197.174 158.222C197.082 159.092 195.938 159.259 195.292 159.24C190.439 159.055 189.388 165.442 192.967 167.867C196.307 170.126 199.85 171.995 203.577 173.55C207.876 175.328 211.197 174.569 214.74 171.644C217.563 169.311 220.331 166.516 221.309 162.887C222.287 159.259 221.456 154.964 218.486 152.502C217.046 151.317 214.611 150.484 212.895 151.78C211.179 153.076 210.09 154.316 209.002 156.056C208.614 156.686 208.263 157.315 207.894 157.945C207.636 158.37 207.359 158.778 207.322 158.759C207.138 158.666 208.559 158.592 208.153 158.592C208.632 158.592 208.78 158.833 209.149 158.889C209.204 158.889 209.407 159.222 209.352 159.277C209.371 159.277 209.094 158.37 209.075 158.278C209.094 158.426 209.112 157.945 209.26 157.648C209.481 157.186 210.035 156.575 210.404 156.149C212.987 153.242 215.902 150.651 216.64 146.633C217.378 142.616 216.179 138.062 212.267 136.174C209.869 135.026 206.012 135.748 205.496 138.932C205.034 141.765 204.573 144.616 204.093 147.448C203.872 148.799 203.651 150.132 203.429 151.484C203.337 152.076 203.245 152.687 203.134 153.279C203.097 153.557 203.042 153.835 202.968 154.112C202.765 154.834 202.968 154.52 203.595 153.168L205.92 152.539C206.215 152.52 206.843 153.446 207.138 153.65C207.599 153.964 206.769 154.057 207.193 153.909C207.359 153.853 206.953 154.075 207.304 153.539C207.267 153.613 207.212 153.983 207.046 153.964C206.953 153.964 207.747 153.724 207.156 153.835C206.658 153.927 205.883 153.798 206.308 154.112C206.99 154.594 208.337 154.945 209.094 155.186C213.707 156.667 218.467 154.186 219.482 149.336C220.405 144.912 218.615 140.506 217.397 136.322C215.829 130.953 214.242 125.585 212.673 120.216C211.234 115.273 203.558 116.125 203.614 121.438C203.706 130.509 204.868 139.543 207.009 148.355C208.208 153.298 216.622 152.409 216.068 147.133C214.685 134.026 213.319 120.92 211.935 107.813L202.876 109.035C204.352 118.587 206.714 127.954 209.924 137.062C211.603 141.82 218.965 141.283 218.984 135.841C219.039 120.957 216.788 106.073 212.323 91.8922C211.068 87.912 204.204 87.0789 203.429 91.8922C202.488 97.594 202.783 103.296 204.758 108.757L213.19 105.184C210.496 101.167 209.315 96.5943 207.821 92.0588C206.326 87.5232 204.37 83.1173 201.676 79.1371C196.381 71.3063 189.129 64.9936 181.011 60.2359C171.822 54.8673 161.563 51.461 151.304 48.8507C141.045 46.2405 129.697 43.7783 118.755 42.1863C97.7946 39.1317 76.1141 39.4464 56.574 48.536C52.1272 50.5909 47.9756 53.1456 44.0824 56.1446C42.0712 57.6997 40.1522 59.5139 39.4695 62.0501C38.6761 65.0491 39.9124 68.2703 42.4771 69.9919C47.4037 73.2872 52.2564 70.14 56.6663 67.6224C61.0762 65.1047 65.5414 62.8091 70.1543 60.7913C90.3033 51.9238 113.238 48.2028 134.845 53.3493L133.738 44.8891C109.271 58.4402 83.2364 68.9553 56.2419 76.1566C48.5661 78.2115 40.798 79.9887 32.9931 81.5067L36.5542 89.9669C63.8624 75.6382 92.2038 63.4015 121.357 53.4048L118.903 44.4818C106.282 49.221 94.4364 55.6448 82.2216 61.3096C76.5016 63.9569 70.6709 66.4005 64.6373 68.2888C61.4637 69.2885 58.2531 70.1215 55.0057 70.7695C53.6587 71.0286 52.2933 71.2693 50.9279 71.4544C50.1714 71.547 49.3964 71.621 48.6214 71.6951C48.1048 71.7321 47.5882 71.7877 47.0715 71.8247C45.6692 71.7506 46.149 72.3245 48.5292 73.5463V76.0085C48.5292 76.0085 48.806 75.8234 49.1934 75.6012C50.2267 75.0458 51.2969 74.5645 52.3486 74.0647C54.5813 72.991 56.8323 71.9358 59.0834 70.8991C63.3642 68.9367 67.6634 67.03 72.0179 65.2157C80.9115 61.5133 89.9343 58.107 99.0493 54.9969C104.64 53.0901 102.241 44.1486 96.5952 46.0739C86.2624 49.5912 76.0957 53.4974 66.0396 57.7737C60.9286 59.9397 55.8729 62.2167 50.8541 64.5678C46.6656 66.5486 40.7427 68.3814 39.6356 73.5463C39.0267 76.3972 40.5213 79.063 43.0491 80.3404C45.577 81.6178 48.3631 81.0254 50.9279 80.7106C55.6515 80.1368 60.3197 79.2111 64.8956 77.8968C74.2136 75.2125 83.1072 71.1767 91.8348 66.9744C101.596 62.2723 111.209 57.2369 121.357 53.4233C123.682 52.5532 125.287 50.2947 124.586 47.7215C123.959 45.4259 121.283 43.6673 118.903 44.4818C89.0117 54.7377 59.8953 67.2891 31.886 81.988C29.8748 83.0432 29.1183 85.7645 30.0039 87.7639C30.9634 89.9669 33.1222 90.8925 35.4471 90.4482C63.5118 84.9685 90.8384 76.0085 116.763 63.9199C124.106 60.4951 131.302 56.8111 138.388 52.8865C141.801 50.9982 141.137 45.3519 137.281 44.4263C118.995 40.0759 99.8427 41.3347 81.9079 46.6848C72.8851 49.3691 64.1207 53.0716 55.8175 57.5146C53.8432 58.5698 51.8874 59.699 49.95 60.8468C49.378 61.18 48.8244 61.5688 48.234 61.8465C48.0864 61.9205 47.0162 62.4759 47.1453 62.2537C47.1822 62.1797 47.6066 62.3278 47.6066 62.3463C47.6989 62.9942 48.0125 64.5123 48.6214 64.3457C49.1381 64.1976 50.1529 63.0868 50.5958 62.7536C51.4261 62.1427 52.2748 61.5688 53.1421 61.0134C55.0795 59.7546 57.0907 58.6068 59.1388 57.5701C76.0034 49.0359 95.6358 48.499 114.013 50.8316C124.069 52.1089 134.052 54.2749 143.905 56.5889C153.758 58.903 162.854 61.3837 171.582 65.6971C179.719 69.7143 187.506 75.231 192.875 82.6544C195.68 86.5421 197.672 90.7259 199.148 95.2799C200.772 100.297 202.248 105.443 205.219 109.868C206.492 111.774 208.799 112.719 210.976 111.756C212.932 110.886 214.445 108.498 213.651 106.295C212.267 102.444 211.659 98.4085 212.323 94.3358H203.429C207.673 107.794 209.813 121.716 209.758 135.822L218.818 134.6C215.607 125.492 213.245 116.125 211.769 106.573C210.976 101.463 202.156 102.611 202.71 107.794C204.093 120.901 205.459 134.008 206.843 147.115L215.902 145.893C213.946 137.859 212.932 129.713 212.839 121.438L203.78 122.66C204.979 126.714 206.16 130.787 207.359 134.841C208.393 138.34 209.74 141.894 210.422 145.467C210.533 146.022 210.385 146.319 210.533 147.022C210.515 146.93 210.385 147.189 210.588 147.152C210.828 146.837 211.16 146.596 211.566 146.467C212.267 146.504 212.36 146.467 211.861 146.337C211.548 145.93 210.238 145.671 209.703 145.486C206.511 144.319 203.134 144.764 200.68 147.244C195.901 152.076 197.912 161.925 205.643 161.795C210.219 161.721 211.714 157.722 212.341 153.927C213.024 149.744 213.707 145.56 214.389 141.376L207.618 144.134C208.559 144.579 207.507 144.171 207.655 143.727C207.433 144.375 207.691 144.782 207.525 145.189C206.99 146.578 205.44 147.874 204.352 149.059C201.16 152.502 198.927 156.649 200.366 161.443C201.695 165.831 205.994 168.774 210.551 167.293C212.673 166.608 214.205 165.016 215.423 163.221C215.939 162.48 216.345 161.666 216.825 160.888C217.12 160.407 217.563 159.685 217.545 159.703L211.954 158.981C213.965 160.647 209.315 164.516 207.894 165.275C207.802 165.331 207.636 165.442 207.987 165.368C208.411 165.275 207.378 165.109 207.138 165.016C206.086 164.628 205.09 164.128 204.093 163.646C201.842 162.536 199.702 161.24 197.617 159.833L195.292 168.46C201.344 168.7 205.791 163.961 206.4 158.185C206.658 155.723 204.075 153.52 201.787 153.557C194.259 153.705 187.339 157.741 183.575 164.294C182.321 166.479 183.077 169.33 185.236 170.626C191.62 174.476 199.462 175.402 206.769 175.679C213.448 175.92 220.571 174.458 224.445 168.478C228.671 161.98 226.493 152.724 225.885 145.541C225.183 137.248 224.63 128.917 223.67 120.642C222.674 112.071 220.774 104.036 217.157 96.1685C213.946 89.2264 210.385 82.1361 205.92 75.9159C196.768 63.1979 182.228 56.3483 168.408 49.943C151.913 42.3159 134.568 36.4659 116.32 35.4477C110.397 35.1145 110.415 44.3707 116.32 44.704Z" fill="black"/>
<path d="M126.025 53.5159C141.986 66.2154 161.508 73.5093 181.915 74.0461C187.284 74.1942 187.967 66.5486 183.133 64.9565C172.523 61.4577 162.283 57.0517 152.448 51.7387C147.226 48.9063 142.558 56.9036 147.798 59.736C158.315 65.4193 169.331 70.1585 180.679 73.898L181.896 64.8084C164.109 64.3271 146.488 58.0884 132.52 46.981C130.565 45.4259 127.907 45.0742 125.989 46.981C124.383 48.5915 124.033 51.9608 125.989 53.5344L126.025 53.5159Z" fill="black"/>
</svg>
