<svg width="240" height="240" viewBox="0 0 240 240" fill="none" xmlns="http://www.w3.org/2000/svg">
<rect width="240" height="240" fill="white"/>
<g clip-path="url(#clip0_106_2494)">
<path d="M114.545 53.8602C95.6142 51.4351 75.2806 49.3802 57.6595 58.3958C41.5698 66.6338 30.4067 83.4061 24.7052 100.178C13.7819 132.371 21.9744 170.729 47.6035 193.629C71.8856 215.326 108.696 223.045 139.104 210.586C148.238 206.847 156.652 201.775 164.475 195.777C172.298 189.779 180.03 183.17 186.543 175.691C193.056 168.212 197.614 160.399 199.736 151.125C201.728 142.424 201.507 133.427 199.717 124.726C192.3 88.6266 159.604 61.2652 125.266 51.972C121.003 50.8242 116.667 49.9541 112.294 49.3432C109.822 48.9915 107.349 49.9541 106.611 52.5829C106.021 54.7488 107.349 57.933 109.84 58.2847C142.093 62.8017 174.014 83.3135 186.82 114.174C192.816 128.632 194.422 145.7 186.635 159.807C182.318 167.619 175.878 173.913 169.309 179.819C162.741 185.724 155.212 191.667 147.278 196.313C133.809 204.218 118.863 208.032 103.272 207.162C88.6764 206.347 74.3396 201.478 62.1801 193.351C36.6802 176.32 24.9635 144.423 30.5174 114.544C33.3958 99.0491 40.6104 84.1096 52.3086 73.3909C65.7966 61.0431 83.9344 60.0989 101.26 61.6355C105.707 62.0242 110.117 62.5796 114.545 63.135C117.018 63.4497 119.158 60.7839 119.158 58.5069C119.158 55.7485 117.036 54.1935 114.545 53.8788V53.8602Z" fill="#231F20"/>
<path d="M77.6797 100.789V112.563C77.6797 114.988 79.8016 117.302 82.2925 117.191C84.7835 117.08 86.9054 115.155 86.9054 112.563V100.789C86.9054 98.3641 84.7835 96.05 82.2925 96.1611C79.8016 96.2721 77.6797 98.1974 77.6797 100.789Z" fill="#231F20"/>
<path d="M128.845 99.16V109.305C128.845 110.49 129.362 111.73 130.192 112.582C131.022 113.433 132.314 113.988 133.458 113.933C134.602 113.877 135.894 113.489 136.724 112.582C137.554 111.674 138.071 110.564 138.071 109.305V99.16C138.071 97.9752 137.554 96.7349 136.724 95.8833C135.894 95.0317 134.602 94.4764 133.458 94.5319C132.314 94.5874 131.022 94.9762 130.192 95.8833C129.362 96.7904 128.845 97.9012 128.845 99.16Z" fill="#231F20"/>
<path d="M72.9559 148.884C73.5648 157.474 78.6574 164.305 84.8387 169.914C91.0199 175.524 98.2898 180.818 106.944 181.152C115.597 181.485 123.771 176.32 129.676 170.174C135.58 164.028 141.964 156.882 142.721 148.199C142.942 145.7 140.451 143.571 138.108 143.571C135.433 143.571 133.717 145.7 133.495 148.199C133.237 151.161 131.263 153.883 129.491 156.16C127.498 158.751 125.395 161.269 123.144 163.62C118.863 168.063 113.383 172.136 106.925 171.895C100.91 171.673 95.5959 167.249 91.3336 163.38C87.0713 159.511 82.5876 154.827 82.1448 148.884C81.9603 146.385 80.152 144.256 77.5319 144.256C75.1701 144.256 72.7345 146.385 72.919 148.884H72.9559Z" fill="#231F20"/>
<path d="M35.6284 85.3868C82.4213 87.1455 128.974 80.2774 175.749 80.4255C188.886 80.4625 202.042 81.0734 215.106 82.5729C217.578 82.8506 219.719 80.2404 219.719 77.9448C219.719 75.205 217.597 73.5944 215.106 73.3167C168.516 68.0222 121.778 74.1128 75.1699 75.9455C61.9955 76.4638 48.8212 76.6305 35.6469 76.1306C29.7055 75.9085 29.7239 85.1647 35.6469 85.3868H35.6284Z" fill="black"/>
<path d="M169.549 76.2232C168.147 62.8387 166.505 48.7877 158.109 37.7543C154.198 32.6079 149.234 28.7203 143.219 26.3321C137.204 23.944 130.008 23.2035 123.291 23.0369C100.541 22.4816 76.4248 27.591 58.656 42.5861C47.5113 51.9904 41.0533 65.0416 35.0566 78.0559C32.8609 82.8136 38.2302 87.2195 42.308 83.6652C50.2052 76.7785 57.3644 69.7438 63.3427 61.08C66.0181 57.2109 68.7859 53.4714 72.7529 50.8241C76.9229 48.0287 81.5912 45.9738 86.1487 43.9004C95.2083 39.7907 104.692 36.5695 114.712 36.2918C124.177 36.0327 134.51 37.8099 142.832 42.5676C147.61 45.2889 149.732 50.1206 151.78 55.0079C154.105 60.5987 155.969 66.3931 157.445 72.28L161.892 66.4301C142.481 68.3554 123.07 70.4843 103.622 72.0208C93.9352 72.7798 84.2297 73.3537 74.5058 73.5018C69.6531 73.5759 64.8003 73.5574 59.9476 73.4093C58.1209 73.3537 55.8514 73.4093 54.3753 73.1131C54.0247 73.039 52.8069 72.6503 52.8253 72.6503C51.9397 72.6317 52.8991 72.1319 52.9914 73.5018L49.5963 77.9633C55.5931 75.6308 61.8666 76.3157 68.1216 76.9451C75.004 77.6301 81.5543 77.7597 88.3628 76.2417C95.1714 74.7236 101.611 72.6317 108.493 71.8912C115.376 71.1507 122.646 71.0767 129.749 71.0212V61.7649C119.121 61.9316 108.512 63.3385 98.1975 65.9302C93.2894 67.1706 94.1566 75.6122 99.4153 75.0198C118.088 72.9279 136.743 70.8175 155.415 68.7256C159.382 68.2813 161.486 64.0049 158.681 60.8208L139.787 39.513L135.303 47.2512C138.422 48.0287 140.728 49.6393 142.721 52.1385L148.312 44.8631C126.244 29.146 97.607 33.6816 74.3213 43.8449C68.915 46.196 63.0474 48.9543 60.0768 54.36C56.9216 60.0988 57.6412 67.4112 63.1766 71.3729C67.4573 74.446 73.1035 74.1312 78.03 73.2426C84.322 72.0949 90.4294 70.0215 96.7029 68.7626C111.778 65.7266 127.166 64.6344 142.518 65.2453C146.577 65.4119 148.515 60.0988 145.784 57.3405C136.964 48.4175 124.675 45.2889 112.516 44.715C106.556 44.4373 100.578 44.752 94.6363 45.2704C89.1009 45.7517 83.4548 46.4922 78.233 48.4545C72.1809 50.7315 66.6086 54.5081 63.8962 60.5987C63.0105 62.598 63.1397 64.5418 64.6158 66.2079C68.6567 70.762 75.4099 70.2807 80.318 67.5223C82.8459 66.0968 84.9862 64.079 87.4956 62.635C89.8759 61.2836 92.496 60.5246 95.153 59.9322C101.131 58.5993 107.331 57.8588 113.401 57.0998C119.952 56.2853 126.539 55.7484 133.163 55.8595L131.945 46.7699C125.782 48.7877 119.638 50.7871 113.475 52.8049L119.158 56.0446C116.76 50.2132 126.373 49.0654 130.082 48.7507C135.912 48.2324 136.115 39.5685 130.082 39.4945C117.129 39.3279 104.176 39.3649 91.2228 39.6056C85.2999 39.7166 85.2815 48.9729 91.2228 48.8618C104.176 48.6211 117.129 48.5841 130.082 48.7507V39.4945C124.509 39.9943 118.734 40.6978 114.324 44.5114C110.505 47.8251 108.272 53.6565 110.265 58.5253C111.187 60.7468 113.328 62.6165 115.948 61.7649C122.111 59.7471 128.255 57.7477 134.418 55.7299C139.289 54.1378 138.532 46.7143 133.2 46.6403C120.948 46.4552 108.659 48.3064 96.6106 50.3057C91.352 51.1758 86.038 52.5457 81.5358 55.5077C79.3954 56.9147 73.7862 62.635 71.1661 59.6915L71.8857 65.3008C74.2475 59.9877 79.174 57.5811 84.6172 56.1927C90.5955 54.6377 96.869 54.2674 103.013 54.0082C115.634 53.4899 129.879 54.397 139.289 63.9124L142.555 56.0076C130.155 55.5077 117.793 56.1927 105.504 57.9329C99.4337 58.7844 93.4001 59.9322 87.4403 61.3577C82.7536 62.4869 77.9562 64.3937 73.1035 64.6159C70.3911 64.7454 66.8853 64.4678 67.4389 60.8949C68.14 56.3223 73.8416 54.1748 77.4949 52.5272C87.8462 47.8806 99.0831 44.3633 110.468 43.8264C121.852 43.2895 133.993 45.9553 143.699 52.8605C145.544 54.1748 148.385 53.3788 149.659 51.6757C151.135 49.6948 150.784 47.4548 149.29 45.6036C146.393 41.9752 142.278 39.4575 137.794 38.3282C133.311 37.1989 130.285 42.6416 133.311 46.0664C139.603 53.1752 145.913 60.2654 152.205 67.3742L155.471 59.4694C136.798 61.5613 118.143 63.6717 99.4706 65.7636L100.688 74.8532C110.246 72.4466 119.933 71.1693 129.786 71.0212C135.709 70.9286 135.728 61.7279 129.786 61.7649C122.553 61.8205 115.302 61.876 108.106 62.6721C100.91 63.4681 93.9352 65.4489 86.7945 67.115C80.2442 68.6516 73.9892 68.2443 67.3466 67.5964C60.7041 66.9484 53.6372 66.5041 47.1792 69.0218C45.371 69.7253 43.6365 71.3359 43.7841 73.4833C44.3746 81.7954 53.0283 82.4063 59.5048 82.6285C67.6972 82.8876 75.8897 82.7951 84.0821 82.4618C100.633 81.7769 117.129 80.1108 133.606 78.4817C143.035 77.556 152.463 76.6119 161.91 75.6863C164.899 75.3901 167.151 72.965 166.357 69.8364C164.936 64.2271 163.183 58.7289 161.006 53.3603C158.829 47.9917 156.762 42.7712 152.851 38.6614C148.939 34.5517 143.385 32.3487 138.182 30.553C132.978 28.7573 127.295 27.6836 121.686 27.2207C110.394 26.2766 99.2677 28.5536 88.8057 32.7745C78.3437 36.9953 67.4389 41.1606 60.3535 49.6763C56.5525 54.2489 53.6188 59.4509 49.6701 63.8939C45.4263 68.6886 40.592 72.9094 35.7577 77.1117L43.0092 82.721C47.8804 72.1504 52.8622 61.2466 61.1285 52.8605C68.1585 45.7332 77.0337 40.6793 86.4623 37.4766C95.891 34.274 106.611 32.5523 116.981 32.2932C127.351 32.034 139.455 32.1265 147.481 39.6426C157.39 48.9358 158.958 63.4311 160.305 76.2232C160.563 78.7038 162.242 80.8513 164.918 80.8513C167.206 80.8513 169.789 78.7223 169.531 76.2232H169.549Z" fill="black"/>
</g>
<defs>
<clipPath id="clip0_106_2494">
<rect width="199.7" height="193.547" fill="white" transform="translate(20 23)"/>
</clipPath>
</defs>
</svg>
