<svg width="240" height="240" viewBox="0 0 240 240" fill="none" xmlns="http://www.w3.org/2000/svg">
<rect width="240" height="240" fill="white"/>
<path d="M123.543 40.5868C104.63 38.1432 84.2968 36.1068 66.6756 45.1224C50.5675 53.3419 39.4044 70.1141 33.7213 86.9049C22.7981 119.098 30.9905 157.456 56.6196 180.356C80.9017 202.052 117.712 209.772 148.12 197.313C157.254 193.574 165.668 188.501 173.491 182.503C181.315 176.505 189.046 169.896 195.559 162.417C202.072 154.938 206.63 147.126 208.752 137.851C210.745 129.15 210.523 120.153 208.733 111.452C201.334 75.3532 168.638 47.9918 134.3 38.6985C130.038 37.5508 125.702 36.6807 121.329 36.0698C118.856 35.718 116.384 36.6807 115.646 39.3095C115.055 41.4754 116.384 44.6595 118.875 45.0113C151.128 49.5283 183.049 70.0401 195.854 100.9C201.851 115.359 203.456 132.427 195.67 146.533C191.352 154.346 184.913 160.64 178.344 166.545C171.775 172.451 164.247 178.393 156.313 183.04C142.843 190.945 127.898 194.758 112.306 193.888C97.711 193.074 83.3742 188.205 71.2147 180.078C45.6963 163.01 33.9796 131.131 39.5335 101.234C42.412 85.7386 49.6265 70.7991 61.3247 60.0804C74.8127 47.7326 92.9505 46.7885 110.276 48.325C114.723 48.7138 119.133 49.2691 123.561 49.8245C126.034 50.1392 128.174 47.4734 128.174 45.1964C128.174 42.4381 126.052 40.883 123.561 40.5683L123.543 40.5868Z" fill="#231F20"/>
<path d="M86.6768 87.5343C86.6768 91.4589 86.6768 95.3836 86.6768 99.3082C86.6768 101.733 88.7987 104.047 91.2896 103.936C93.7806 103.825 95.9025 101.9 95.9025 99.3082C95.9025 95.3836 95.9025 91.4589 95.9025 87.5343C95.9025 85.1092 93.7806 82.7951 91.2896 82.9062C88.7987 83.0173 86.6768 84.9426 86.6768 87.5343Z" fill="#231F20"/>
<path d="M137.843 85.8868V96.0316C137.843 97.2164 138.359 98.4567 139.19 99.3083C140.02 100.16 141.312 100.715 142.456 100.66C143.6 100.604 144.891 100.215 145.722 99.3083C146.552 98.4012 147.069 97.2905 147.069 96.0316V85.8868C147.069 84.702 146.552 83.4617 145.722 82.6101C144.891 81.7585 143.6 81.2032 142.456 81.2587C141.312 81.3142 140.02 81.703 139.19 82.6101C138.359 83.5172 137.843 84.628 137.843 85.8868Z" fill="#231F20"/>
<path d="M81.953 135.611C82.5619 144.201 87.6545 151.032 93.8358 156.641C100.017 162.251 107.287 167.545 115.941 167.878C124.594 168.212 132.768 163.047 138.673 156.9C144.577 150.754 150.961 143.609 151.718 134.926C151.939 132.427 149.448 130.298 147.105 130.298C144.43 130.298 142.714 132.427 142.492 134.926C142.234 137.888 140.26 140.61 138.488 142.887C136.496 145.478 134.392 147.996 132.141 150.347C127.86 154.79 122.38 158.863 115.922 158.622C109.907 158.4 104.593 153.975 100.331 150.106C96.0684 146.237 91.5847 141.554 91.1418 135.611C90.9573 133.112 89.1491 130.983 86.529 130.983C84.1672 130.983 81.7316 133.112 81.9161 135.611H81.953Z" fill="#231F20"/>
<path d="M68.0037 79.3148C74.9599 79.1482 81.9161 79.1482 88.8907 79.3148C92.212 79.3889 95.5517 79.5185 98.873 79.6666C100.681 79.7591 102.508 79.8517 104.316 79.9628C105.22 80.0183 106.124 80.0738 107.029 80.1294L107.933 80.1849C109.261 80.3515 109.15 80.2405 107.6 79.7962L106.42 77.7598C106.272 77.0193 106.032 79.3519 105.977 79.6851C105.811 80.7218 105.645 81.7585 105.497 82.7952C105.22 84.5724 104.943 86.3496 104.667 88.1268C104.15 91.459 103.781 94.8653 102.988 98.142C102.379 100.697 101.456 102.659 98.9283 103.714C95.9207 104.973 92.378 105.436 89.1306 105.528C86.1045 105.621 83.835 105.343 81.6577 103.122C79.4805 100.9 77.4693 98.3826 75.5688 95.9205C71.6755 90.8851 67.8007 84.4058 68.9631 77.7413L61.2504 79.7776C66.9519 86.183 71.5833 93.4213 75.1628 101.215L83.1339 96.5499C80.809 93.4398 78.4841 90.3297 76.1592 87.2196C74.6646 85.2203 72.1737 84.2021 69.8488 85.5535C67.8007 86.7568 66.8043 89.7929 68.1882 91.8848C72.0076 97.6421 76.1408 103.196 80.5138 108.564C83.835 112.637 90.5698 107.343 87.7652 102.955C85.182 98.938 82.6726 94.8653 80.237 90.7555C79.0561 88.7562 77.8936 86.7568 76.7497 84.739C75.7902 83.0544 74.6831 81.5178 74.8492 79.5185L67.9114 83.5172C75.6057 89.4782 81.6577 97.3459 85.8831 106.102L93.1346 100.493C88.4848 94.5876 84.9606 87.7935 82.6726 80.6477L75.9009 85.8682C82.9678 91.1258 87.8574 98.7899 92.5626 106.102C93.7988 108.028 96.179 108.953 98.3194 107.991C100.275 107.139 101.788 104.732 100.995 102.529C97.5814 93.2177 93.3006 84.2762 88.0789 75.853L81.7685 82.1843C89.2782 87.016 93.1899 95.6798 96.8802 103.492C97.7474 105.325 100.257 106.121 102.084 105.621C104.205 105.047 105.22 103.214 105.479 101.16C105.94 97.383 105.017 93.6435 103.91 90.0706C102.803 86.4977 101.641 82.9618 100.515 79.4074L96.0683 85.2573C97.526 85.3314 98.7807 87.2011 98.4855 88.4785C97.1385 94.2729 106.032 96.7536 107.379 90.9406C109.095 83.5172 103.652 76.3343 96.0683 76.0011C93.153 75.8715 90.7359 79.0742 91.6215 81.851C92.6733 85.1463 93.725 88.423 94.7767 91.7182C95.8285 95.0134 96.6772 97.8273 96.2713 101.16L104.87 98.8269C100.423 89.4041 95.441 79.9998 86.4551 74.2054C82.5619 71.7062 77.746 76.6676 80.1447 80.5367C84.9421 88.2749 89.0014 96.4388 92.1382 105.01L100.57 101.437C94.9243 92.6808 89.0383 84.1651 80.5876 77.8894C77.3217 75.4643 72.6534 79.4815 73.8159 83.1099C76.6205 91.8848 80.9566 99.8266 86.6581 107.028C88.0604 108.805 91.1049 108.676 92.7102 107.398C94.5922 105.899 94.9243 103.566 93.8911 101.419C88.9276 91.1443 81.5839 82.4805 72.5981 75.5198C69.5536 73.1687 65.9187 76.4639 65.6603 79.5185C65.2175 84.739 68.9262 89.6448 71.4172 93.9212C74.1296 98.5493 76.9342 103.103 79.8311 107.62L87.0825 102.011C83.2077 97.2534 79.5912 92.3106 76.1961 87.2011L68.2251 91.8663C70.55 94.9764 72.8749 98.0864 75.1997 101.197C78.7424 105.954 85.6986 102.011 83.1708 96.5314C79.2406 88.0157 74.0373 80.2034 67.8007 73.2057C65.605 70.7436 60.6784 71.8543 60.088 75.2421C58.2059 86.0349 63.317 95.254 69.8673 103.4C72.7088 106.935 75.6795 111.119 79.868 113.119C84.7207 115.433 90.496 114.914 95.6439 114.044C100.331 113.248 105.331 111.712 108.449 107.898C111.383 104.325 112.158 99.8636 112.841 95.4207C113.671 90.0891 114.557 84.7575 115.35 79.4074C115.774 76.5935 115.627 73.7056 112.896 72.0209C110.59 70.5955 107.434 70.7991 104.814 70.651C92.581 69.9105 80.3108 69.7069 68.059 69.9846C62.1361 70.1142 62.1177 79.3704 68.059 79.2408L68.0037 79.3148Z" fill="#231F20"/>
<path d="M105.442 86.3309C111.384 86.3309 111.384 77.0747 105.442 77.0747C99.501 77.0747 99.501 86.3309 105.442 86.3309Z" fill="#231F20"/>
<path d="M131.477 79.8517C146.663 79.574 161.83 79.7591 176.997 80.3886L172.384 75.7604C172.236 82.7581 171.738 91.0702 168.399 97.383C165.834 102.215 160.963 104.325 155.63 104.103C150.298 103.881 145.5 100.586 142.05 96.5129C138.821 92.6808 134.559 85.6831 136.514 80.5367L128.082 81.6474C132.178 89.1264 136.256 96.6054 140.352 104.084C141.552 106.269 144.559 106.991 146.663 105.751C149.006 104.381 149.338 101.715 148.323 99.4193C145.814 93.7545 143.397 87.9601 143.803 81.6474L135.204 83.98C140.777 91.6811 145.796 99.7526 150.261 108.157C152.715 112.785 160.188 109.62 158.693 104.584C157.291 99.9007 155.907 95.2355 154.505 90.5519C153.25 86.331 152.438 81.3882 149.172 78.2041C145.537 74.6497 138.932 79.3148 141.921 83.8134C147.382 91.9773 153.324 99.8081 159.708 107.25C161.184 108.972 164.099 108.953 165.76 107.62C167.679 106.084 167.919 103.825 166.941 101.641C165.151 97.5866 163.343 93.5509 161.553 89.4967C159.948 85.8682 158.343 82.2953 157.623 78.3707L149.91 82.8692C155.759 88.4044 160.446 94.8097 164.044 102.048C165.723 105.436 171.849 104.862 172.476 100.937C173.177 96.5499 171.96 92.8474 170.594 88.7377C169.303 84.8871 168.011 81.055 166.719 77.2044L161.036 82.9062C162.236 83.2395 163.417 83.6097 164.579 84.017C165.225 84.2391 165.871 84.4798 166.517 84.739C167.458 85.1462 167.679 85.7572 166.849 83.9059C166.018 82.0547 166.258 82.8137 165.945 83.9244C165.76 84.6279 165.575 85.3129 165.391 86.0163C165.022 87.4048 164.653 88.8117 164.265 90.2001C162.734 95.9575 171.628 98.4197 173.159 92.6623C174.174 88.8672 176.849 83.3505 174.654 79.6295C172.605 76.1492 167.07 74.9829 163.472 73.9833C160.225 73.0761 156.663 76.2788 157.789 79.6851C158.915 83.0914 160.003 86.2755 161.11 89.5707C161.664 91.1998 162.236 92.8289 162.752 94.4765C163.14 95.6798 163.749 97.1978 163.546 98.4937L171.978 97.383C168.085 89.5152 162.771 82.3694 156.405 76.3343C152.899 73.0206 147.862 76.3899 148.692 80.8329C149.523 85.2758 151.386 89.293 153.195 93.3473C155.113 97.6607 157.032 101.974 158.933 106.306L166.184 100.697C160.298 93.8471 154.855 86.6458 149.836 79.1297L142.585 84.739C143.544 85.6831 143.766 87.0715 144.135 88.3304C144.762 90.4593 145.408 92.5882 146.035 94.7172C147.253 98.8269 148.489 102.937 149.707 107.046L158.14 103.474C153.693 95.0689 148.655 86.9975 143.083 79.2963C140.408 75.5938 134.78 76.8527 134.485 81.6289C133.987 89.5892 137.123 96.9572 140.279 104.066L148.25 99.4008C144.153 91.9218 140.076 84.4428 135.979 76.9638C133.913 73.1872 128.876 74.5756 127.547 78.0745C125.075 84.5538 128.23 92.0884 131.588 97.6792C134.743 102.937 139.19 107.694 144.688 110.471C155.815 116.099 170.89 113.285 176.628 101.363C180.374 93.5694 181.351 84.3317 181.536 75.779C181.591 73.2057 179.377 71.2619 176.923 71.1508C161.756 70.5214 146.57 70.3363 131.403 70.614C125.48 70.7251 125.462 79.9813 131.403 79.8702L131.477 79.8517Z" fill="#231F20"/>
<path d="M181.204 88.7746C187.274 85.3683 193.345 81.962 199.416 78.5742C201.519 77.3894 202.405 74.3163 201.076 72.243C199.748 70.1696 197.017 69.318 194.766 70.5768C188.695 73.9831 182.625 77.3894 176.554 80.7772C174.451 81.962 173.565 85.035 174.894 87.1084C176.222 89.1818 178.953 90.0334 181.204 88.7746Z" fill="#231F20"/>
<path d="M63.3359 79.2036C62.9115 79.037 62.5056 78.8704 62.0812 78.7038C61.8782 78.6112 61.6568 78.5372 61.4538 78.4446C62.0443 78.6853 62.0996 78.7223 61.6199 78.5187C60.7896 78.1484 59.9777 77.7967 59.1659 77.4079C57.5421 76.6304 55.9553 75.7974 54.4054 74.8902C52.8555 73.9831 51.324 73.039 49.8479 72.0208C49.1098 71.521 48.3718 70.9841 47.6521 70.4658C47.2831 70.2066 46.9141 69.9289 46.582 69.6512C47.5599 70.4473 46.379 69.4846 46.1945 69.3365C45.1981 68.5405 44.2571 67.9851 42.9286 67.9851C41.803 67.9851 40.4376 68.4849 39.6627 69.3365C38.1312 71.0211 37.6515 74.2608 39.6627 75.8899C46.1207 81.0919 53.1691 85.1646 60.8818 88.1451C63.1329 89.0152 66.0482 87.1825 66.5649 84.9055C67.1738 82.2582 65.753 80.1478 63.3359 79.2036Z" fill="#231F20"/>
<path d="M112.491 89.5337C121.347 89.7743 130.223 89.7003 139.079 89.293C141.478 89.1819 143.803 87.2381 143.692 84.6649C143.581 82.2583 141.662 79.9257 139.079 80.0368C130.223 80.444 121.347 80.5181 112.491 80.2774C110.074 80.2034 107.767 82.4619 107.878 84.9055C107.989 87.3492 109.908 89.4596 112.491 89.5337Z" fill="#231F20"/>
</svg>
