<svg width="80" height="81" viewBox="0 0 80 81" fill="none" xmlns="http://www.w3.org/2000/svg">
<g clip-path="url(#clip0_38_731)">
<rect x="70" y="70.5" width="10" height="10" fill="#BF4F6A"/>
<rect x="60" y="70.5" width="10" height="10" fill="#C5A726"/>
<rect x="50" y="70.5" width="10" height="10" fill="white"/>
<rect x="40" y="70.5" width="10" height="10" fill="#F345BE"/>
<rect x="30" y="70.5" width="10" height="10" fill="#C5A726"/>
<rect x="20" y="70.5" width="10" height="10" fill="#BF4F6A"/>
<rect x="10" y="70.5" width="10" height="10" fill="#F345BE"/>
<rect y="70.5" width="10" height="10" fill="#F345BE"/>
<rect x="70" y="60.5" width="10" height="10" fill="white"/>
<rect x="60" y="60.5" width="10" height="10" fill="#C5A726"/>
<rect x="50" y="60.5" width="10" height="10" fill="#BF4F6A"/>
<rect x="40" y="60.5" width="10" height="10" fill="#C5A726"/>
<rect x="30" y="60.5" width="10" height="10" fill="white"/>
<rect x="20" y="60.5" width="10" height="10" fill="#C5A726"/>
<rect x="10" y="60.5" width="10" height="10" fill="white"/>
<rect y="60.5" width="10" height="10" fill="#F345BE"/>
<rect x="70" y="50.5" width="10" height="10" fill="#F345BE"/>
<rect x="60" y="50.5" width="10" height="10" fill="#F345BE"/>
<rect x="50" y="50.5" width="10" height="10" fill="#F345BE"/>
<rect x="40" y="50.5" width="10" height="10" fill="#BF4F6A"/>
<rect x="30" y="50.5" width="10" height="10" fill="white"/>
<rect x="20" y="50.5" width="10" height="10" fill="#BF4F6A"/>
<rect x="10" y="50.5" width="10" height="10" fill="white"/>
<rect y="50.5" width="10" height="10" fill="#BF4F6A"/>
<rect x="70" y="40.5" width="10" height="10" fill="#BF4F6A"/>
<rect x="60" y="40.5" width="10" height="10" fill="#C5A726"/>
<rect x="50" y="40.5" width="10" height="10" fill="#BF4F6A"/>
<rect x="40" y="40.5" width="10" height="10" fill="#F345BE"/>
<rect x="30" y="40.5" width="10" height="10" fill="white"/>
<rect x="20" y="40.5" width="10" height="10" fill="#C5A726"/>
<rect x="10" y="40.5" width="10" height="10" fill="#C5A726"/>
<rect y="40.5" width="10" height="10" fill="#C5A726"/>
<rect x="70" y="30.5" width="10" height="10" fill="#F345BE"/>
<rect x="60" y="30.5" width="10" height="10" fill="#C5A726"/>
<rect x="50" y="30.5" width="10" height="10" fill="#F345BE"/>
<rect x="40" y="30.5" width="10" height="10" fill="#C5A726"/>
<rect x="30" y="30.5" width="10" height="10" fill="#BF4F6A"/>
<rect x="20" y="30.5" width="10" height="10" fill="#BF4F6A"/>
<rect x="10" y="30.5" width="10" height="10" fill="white"/>
<rect y="30.5" width="10" height="10" fill="#C5A726"/>
<rect x="70" y="20.5" width="10" height="10" fill="#C5A726"/>
<rect x="60" y="20.5" width="10" height="10" fill="white"/>
<rect x="50" y="20.5" width="10" height="10" fill="#F345BE"/>
<rect x="40" y="20.5" width="10" height="10" fill="white"/>
<rect x="30" y="20.5" width="10" height="10" fill="#F345BE"/>
<rect x="20" y="20.5" width="10" height="10" fill="white"/>
<rect x="10" y="20.5" width="10" height="10" fill="#F345BE"/>
<rect y="20.5" width="10" height="10" fill="white"/>
<rect x="70" y="10.5" width="10" height="10" fill="#F345BE"/>
<rect x="60" y="10.5" width="10" height="10" fill="#F345BE"/>
<rect x="50" y="10.5" width="10" height="10" fill="#BF4F6A"/>
<rect x="40" y="10.5" width="10" height="10" fill="#C5A726"/>
<rect x="30" y="10.5" width="10" height="10" fill="#BF4F6A"/>
<rect x="20" y="10.5" width="10" height="10" fill="#C5A726"/>
<rect x="10" y="10.5" width="10" height="10" fill="white"/>
<rect y="10.5" width="10" height="10" fill="#BF4F6A"/>
<rect x="70" y="0.5" width="10" height="10" fill="#F345BE"/>
<rect x="60" y="0.5" width="10" height="10" fill="#BF4F6A"/>
<rect x="50" y="0.5" width="10" height="10" fill="#F345BE"/>
<rect x="40" y="0.5" width="10" height="10" fill="#C5A726"/>
<rect x="30" y="0.5" width="10" height="10" fill="#C5A726"/>
<rect x="20" y="0.5" width="10" height="10" fill="#C5A726"/>
<rect x="10" y="0.5" width="10" height="10" fill="white"/>
<rect y="0.5" width="10" height="10" fill="#C5A726"/>
</g>
<defs>
<clipPath id="clip0_38_731">
<rect y="0.5" width="80" height="80" rx="13.3333" fill="white"/>
</clipPath>
</defs>
</svg>
