<svg width="240" height="240" viewBox="0 0 240 240" fill="none" xmlns="http://www.w3.org/2000/svg">
<g clip-path="url(#clip0_38_557)">
<rect x="210" y="210" width="30" height="30" fill="#47CAFF"/>
<rect x="180" y="210" width="30" height="30" fill="#FF6A00"/>
<rect x="150" y="210" width="30" height="30" fill="white"/>
<rect x="120" y="210" width="30" height="30" fill="#47CAFF"/>
<rect x="90" y="210" width="30" height="30" fill="white"/>
<rect x="60" y="210" width="30" height="30" fill="white"/>
<rect x="30" y="210" width="30" height="30" fill="#FFC300"/>
<rect y="210" width="30" height="30" fill="white"/>
<rect x="210" y="180" width="30" height="30" fill="white"/>
<rect x="180" y="180" width="30" height="30" fill="#FF6A00"/>
<rect x="150" y="180" width="30" height="30" fill="white"/>
<rect x="120" y="180" width="30" height="30" fill="#FFC300"/>
<rect x="90" y="180" width="30" height="30" fill="#47CAFF"/>
<rect x="60" y="180" width="30" height="30" fill="#FFC300"/>
<rect x="30" y="180" width="30" height="30" fill="#47CAFF"/>
<rect y="180" width="30" height="30" fill="#47CAFF"/>
<rect x="210" y="150" width="30" height="30" fill="#FF6A00"/>
<rect x="180" y="150" width="30" height="30" fill="white"/>
<rect x="150" y="150" width="30" height="30" fill="#47CAFF"/>
<rect x="120" y="150" width="30" height="30" fill="#47CAFF"/>
<rect x="90" y="150" width="30" height="30" fill="white"/>
<rect x="60" y="150" width="30" height="30" fill="#FF6A00"/>
<rect x="30" y="150" width="30" height="30" fill="#FFC300"/>
<rect y="150" width="30" height="30" fill="#47CAFF"/>
<rect x="210" y="120" width="30" height="30" fill="#47CAFF"/>
<rect x="180" y="120" width="30" height="30" fill="#FFC300"/>
<rect x="150" y="120" width="30" height="30" fill="#FF6A00"/>
<rect x="120" y="120" width="30" height="30" fill="#FFC300"/>
<rect x="90" y="120" width="30" height="30" fill="#47CAFF"/>
<rect x="60" y="120" width="30" height="30" fill="#FFC300"/>
<rect x="30" y="120" width="30" height="30" fill="white"/>
<rect y="120" width="30" height="30" fill="#47CAFF"/>
<rect x="210" y="90" width="30" height="30" fill="#FF6A00"/>
<rect x="180" y="90" width="30" height="30" fill="#FFC300"/>
<rect x="150" y="90" width="30" height="30" fill="#FF6A00"/>
<rect x="120" y="90" width="30" height="30" fill="#FF6A00"/>
<rect x="90" y="90" width="30" height="30" fill="white"/>
<rect x="60" y="90" width="30" height="30" fill="#47CAFF"/>
<rect x="30" y="90" width="30" height="30" fill="#47CAFF"/>
<rect y="90" width="30" height="30" fill="#47CAFF"/>
<rect x="210" y="60" width="30" height="30" fill="white"/>
<rect x="180" y="60" width="30" height="30" fill="#FFC300"/>
<rect x="150" y="60" width="30" height="30" fill="#FF6A00"/>
<rect x="120" y="60" width="30" height="30" fill="white"/>
<rect x="90" y="60" width="30" height="30" fill="#FF6A00"/>
<rect x="60" y="60" width="30" height="30" fill="#FFC300"/>
<rect x="30" y="60" width="30" height="30" fill="#FFC300"/>
<rect y="60" width="30" height="30" fill="#FF6A00"/>
<rect x="210" y="30" width="30" height="30" fill="#FF6A00"/>
<rect x="180" y="30" width="30" height="30" fill="#FFC300"/>
<rect x="150" y="30" width="30" height="30" fill="#FF6A00"/>
<rect x="120" y="30" width="30" height="30" fill="#47CAFF"/>
<rect x="90" y="30" width="30" height="30" fill="white"/>
<rect x="60" y="30" width="30" height="30" fill="white"/>
<rect x="30" y="30" width="30" height="30" fill="white"/>
<rect y="30" width="30" height="30" fill="white"/>
<rect x="210" width="30" height="30" fill="#47CAFF"/>
<rect x="180" width="30" height="30" fill="#FF6A00"/>
<rect x="150" width="30" height="30" fill="#FF6A00"/>
<rect x="120" width="30" height="30" fill="#47CAFF"/>
<rect x="90" width="30" height="30" fill="#47CAFF"/>
<rect x="60" width="30" height="30" fill="#FF6A00"/>
<rect x="30" width="30" height="30" fill="white"/>
<rect width="30" height="30" fill="#47CAFF"/>
</g>
<defs>
<clipPath id="clip0_38_557">
<rect width="240" height="240" rx="10" fill="white"/>
</clipPath>
</defs>
</svg>
