<svg width="240" height="240" viewBox="0 0 240 240" fill="none" xmlns="http://www.w3.org/2000/svg">
<rect width="240" height="240" fill="white"/>
<path d="M123.543 40.5868C104.63 38.1432 84.2968 36.1068 66.6756 45.1224C50.5675 53.3419 39.4044 70.1141 33.7213 86.9049C22.7981 119.098 30.9905 157.456 56.6196 180.356C80.9017 202.052 117.712 209.772 148.12 197.313C157.254 193.574 165.668 188.501 173.491 182.503C181.315 176.505 189.046 169.896 195.559 162.417C202.072 154.938 206.63 147.126 208.752 137.851C210.745 129.15 210.523 120.153 208.733 111.452C201.334 75.3532 168.638 47.9918 134.3 38.6985C130.038 37.5508 125.702 36.6807 121.329 36.0698C118.856 35.718 116.384 36.6807 115.646 39.3095C115.055 41.4754 116.384 44.6595 118.875 45.0113C151.128 49.5283 183.049 70.0401 195.854 100.9C201.851 115.359 203.456 132.427 195.67 146.533C191.352 154.346 184.913 160.64 178.344 166.545C171.775 172.451 164.247 178.393 156.313 183.04C142.843 190.945 127.898 194.758 112.306 193.888C97.711 193.074 83.3742 188.205 71.2147 180.078C45.6963 163.01 33.9796 131.131 39.5335 101.234C42.412 85.7386 49.6265 70.7991 61.3247 60.0804C74.8127 47.7326 92.9505 46.7885 110.276 48.325C114.723 48.7138 119.133 49.2691 123.561 49.8245C126.034 50.1392 128.174 47.4734 128.174 45.1964C128.174 42.4381 126.052 40.883 123.561 40.5683L123.543 40.5868Z" fill="#231F20"/>
<path d="M86.6768 87.5343V99.3082C86.6768 101.733 88.7987 104.047 91.2896 103.936C93.7806 103.825 95.9025 101.9 95.9025 99.3082V87.5343C95.9025 85.1092 93.7806 82.7951 91.2896 82.9062C88.7987 83.0173 86.6768 84.9426 86.6768 87.5343Z" fill="#231F20"/>
<path d="M137.843 85.8868V96.0316C137.843 97.2164 138.359 98.4567 139.19 99.3083C140.02 100.16 141.312 100.715 142.456 100.66C143.6 100.604 144.891 100.215 145.722 99.3083C146.552 98.4012 147.069 97.2905 147.069 96.0316V85.8868C147.069 84.702 146.552 83.4617 145.722 82.6101C144.891 81.7585 143.6 81.2032 142.456 81.2587C141.312 81.3142 140.02 81.703 139.19 82.6101C138.359 83.5172 137.843 84.628 137.843 85.8868Z" fill="#231F20"/>
<path d="M81.953 135.611C82.5619 144.201 87.6545 151.032 93.8358 156.641C100.017 162.251 107.287 167.545 115.941 167.878C124.594 168.212 132.768 163.047 138.673 156.9C144.577 150.754 150.961 143.609 151.718 134.926C151.939 132.427 149.448 130.298 147.105 130.298C144.43 130.298 142.714 132.427 142.492 134.926C142.234 137.888 140.26 140.61 138.488 142.887C136.496 145.478 134.392 147.996 132.141 150.347C127.86 154.79 122.38 158.863 115.922 158.622C109.907 158.4 104.593 153.975 100.331 150.106C96.0684 146.237 91.5847 141.554 91.1418 135.611C90.9573 133.112 89.1491 130.983 86.529 130.983C84.1672 130.983 81.7316 133.112 81.9161 135.611H81.953Z" fill="#231F20"/>
</svg>
