<svg width="80" height="81" viewBox="0 0 80 81" fill="none" xmlns="http://www.w3.org/2000/svg">
<g clip-path="url(#clip0_38_707)">
<rect x="70" y="70.5" width="10" height="10" fill="#812435"/>
<rect x="60" y="70.5" width="10" height="10" fill="#B8B410"/>
<rect x="50" y="70.5" width="10" height="10" fill="#812435"/>
<rect x="40" y="70.5" width="10" height="10" fill="#B8B410"/>
<rect x="30" y="70.5" width="10" height="10" fill="#EEFFFD"/>
<rect x="20" y="70.5" width="10" height="10" fill="white"/>
<rect x="10" y="70.5" width="10" height="10" fill="#EEFFFD"/>
<rect y="70.5" width="10" height="10" fill="white"/>
<rect x="70" y="60.5" width="10" height="10" fill="#EEFFFD"/>
<rect x="60" y="60.5" width="10" height="10" fill="#B8B410"/>
<rect x="50" y="60.5" width="10" height="10" fill="#B8B410"/>
<rect x="40" y="60.5" width="10" height="10" fill="white"/>
<rect x="30" y="60.5" width="10" height="10" fill="#812435"/>
<rect x="20" y="60.5" width="10" height="10" fill="#B8B410"/>
<rect x="10" y="60.5" width="10" height="10" fill="#EEFFFD"/>
<rect y="60.5" width="10" height="10" fill="#EEFFFD"/>
<rect x="70" y="50.5" width="10" height="10" fill="#B8B410"/>
<rect x="60" y="50.5" width="10" height="10" fill="#B8B410"/>
<rect x="50" y="50.5" width="10" height="10" fill="#812435"/>
<rect x="40" y="50.5" width="10" height="10" fill="#B8B410"/>
<rect x="30" y="50.5" width="10" height="10" fill="white"/>
<rect x="20" y="50.5" width="10" height="10" fill="#EEFFFD"/>
<rect x="10" y="50.5" width="10" height="10" fill="#EEFFFD"/>
<rect y="50.5" width="10" height="10" fill="white"/>
<rect x="70" y="40.5" width="10" height="10" fill="#B8B410"/>
<rect x="60" y="40.5" width="10" height="10" fill="#812435"/>
<rect x="50" y="40.5" width="10" height="10" fill="#B8B410"/>
<rect x="40" y="40.5" width="10" height="10" fill="#EEFFFD"/>
<rect x="30" y="40.5" width="10" height="10" fill="#812435"/>
<rect x="20" y="40.5" width="10" height="10" fill="white"/>
<rect x="10" y="40.5" width="10" height="10" fill="#B8B410"/>
<rect y="40.5" width="10" height="10" fill="white"/>
<rect x="70" y="30.5" width="10" height="10" fill="#EEFFFD"/>
<rect x="60" y="30.5" width="10" height="10" fill="#812435"/>
<rect x="50" y="30.5" width="10" height="10" fill="white"/>
<rect x="40" y="30.5" width="10" height="10" fill="white"/>
<rect x="30" y="30.5" width="10" height="10" fill="#B8B410"/>
<rect x="20" y="30.5" width="10" height="10" fill="white"/>
<rect x="10" y="30.5" width="10" height="10" fill="#812435"/>
<rect y="30.5" width="10" height="10" fill="#812435"/>
<rect x="70" y="20.5" width="10" height="10" fill="#B8B410"/>
<rect x="60" y="20.5" width="10" height="10" fill="#812435"/>
<rect x="50" y="20.5" width="10" height="10" fill="white"/>
<rect x="40" y="20.5" width="10" height="10" fill="white"/>
<rect x="30" y="20.5" width="10" height="10" fill="white"/>
<rect x="20" y="20.5" width="10" height="10" fill="#B8B410"/>
<rect x="10" y="20.5" width="10" height="10" fill="#812435"/>
<rect y="20.5" width="10" height="10" fill="#812435"/>
<rect x="70" y="10.5" width="10" height="10" fill="#B8B410"/>
<rect x="60" y="10.5" width="10" height="10" fill="#B8B410"/>
<rect x="50" y="10.5" width="10" height="10" fill="#812435"/>
<rect x="40" y="10.5" width="10" height="10" fill="#812435"/>
<rect x="30" y="10.5" width="10" height="10" fill="white"/>
<rect x="20" y="10.5" width="10" height="10" fill="#B8B410"/>
<rect x="10" y="10.5" width="10" height="10" fill="#EEFFFD"/>
<rect y="10.5" width="10" height="10" fill="#EEFFFD"/>
<rect x="70" y="0.5" width="10" height="10" fill="#EEFFFD"/>
<rect x="60" y="0.5" width="10" height="10" fill="#812435"/>
<rect x="50" y="0.5" width="10" height="10" fill="#812435"/>
<rect x="40" y="0.5" width="10" height="10" fill="#B8B410"/>
<rect x="30" y="0.5" width="10" height="10" fill="#B8B410"/>
<rect x="20" y="0.5" width="10" height="10" fill="#EEFFFD"/>
<rect x="10" y="0.5" width="10" height="10" fill="#B8B410"/>
<rect y="0.5" width="10" height="10" fill="#812435"/>
</g>
<defs>
<clipPath id="clip0_38_707">
<rect y="0.5" width="80" height="80" rx="13.3333" fill="white"/>
</clipPath>
</defs>
</svg>
